<?xml version="1.0" encoding="utf-8"?>
<!-- Generator: Adobe Illustrator 26.3.1, SVG Export Plug-In . SVG Version: 6.00 Build 0)  -->
<svg version="1.1" id="Layer_1" xmlns="http://www.w3.org/2000/svg" xmlns:xlink="http://www.w3.org/1999/xlink" x="0px" y="0px"
	 viewBox="0 0 48 48" style="enable-background:new 0 0 48 48;" xml:space="preserve">
<style type="text/css">
	.st0{fill:#2740BA;}
	.st1{fill:#ED706B;}
	.st2{fill:#6D9F4F;}
</style>
<g>
	<path class="st0" d="M32.4,42.5H15.6C10,42.5,5.5,38,5.5,32.4V15.6C5.5,10,10,5.5,15.6,5.5h16.9c5.6,0,10.1,4.5,10.1,10.1v16.9
		C42.5,38,38,42.5,32.4,42.5z"/>
</g>
<g>
	<g>
		<path class="st1" d="M20.9,22.6c0.4,0.3,0.8,0.6,1.1,0.8c0.9,0.6,1.9,0.7,2.9,0.3c0.2-0.1,0.3-0.2,0.5-0.3c0.4-0.2,0.7-0.5,1-0.8
			c0,0,0.1-0.1,0.1-0.1c3.6,2.6,7.1,5.3,10.7,7.9c-0.3,0.2-0.5,0.3-0.8,0.3C36.2,31,35.9,31,35.7,31c-2.7,0-5.4,0-8.1,0
			c-5.3,0-10.5,0-15.8,0c-0.5,0-1-0.1-1.4-0.3c-0.1,0-0.1-0.1-0.2-0.1c0,0,0,0-0.1-0.1C13.8,27.9,17.3,25.3,20.9,22.6z"/>
		<path class="st1" d="M10.7,13.2c0.3-0.1,0.6-0.2,0.9-0.2c0.1,0,0.1,0,0.2,0c8,0,16,0,24,0c0.3,0,0.6,0,0.9,0.1c0,0,0.1,0,0.1,0
			c0,0,0,0,0,0c0,0-0.1,0.1-0.1,0.1c-4,3-8.1,6-12.1,9c-0.5,0.3-1.2,0.3-1.7,0c-4-3-8.1-6-12.1-9C10.8,13.3,10.7,13.2,10.7,13.2z"/>
		<path class="st1" d="M38.3,29.5c-3.5-2.6-7-5.2-10.5-7.8c3.4-2.5,6.8-5.1,10.2-7.6c0,0.1,0.1,0.1,0.1,0.1c0.7,0.9,0.7,2.1,0.1,3.4
			c-1.3,2.7-1.4,5.9-0.1,8.6c0.6,1.1,0.6,2.1,0.2,3C38.4,29.3,38.4,29.4,38.3,29.5z"/>
		<path class="st1" d="M9.4,14.1c3.4,2.5,6.8,5,10.2,7.6c-3.5,2.6-7,5.2-10.5,7.8c0,0-0.1-0.1-0.1-0.1c-0.4-0.9-0.4-1.9,0.1-3
			c1.4-2.7,1.2-5.9-0.1-8.7c-0.6-1.3-0.5-2.4,0.2-3.3C9.3,14.2,9.4,14.2,9.4,14.1z"/>
	</g>
	<g id="aSyulo.tif">
		<g>
			<path class="st2" d="M31.6,41.4c-0.2-0.3,0-0.6,0.1-0.9c0.7-1.5,1.6-3,2.5-4.4c1.2-2,2.1-4.2,2.9-6.5c0.3-0.9,0.7-1.9,0.9-2.9
				c0.9-3.5-0.9-7-4.5-8.5c-3.1-1.3-7,0.1-8.7,3.1c-1.4,2.4-2.8,4.7-3.8,7.3c-0.6,1.5-1,3-1.6,4.5c-0.2,0.5-0.4,1.1-0.7,1.6
				c-0.1,0.3-0.3,0.4-0.6,0.5c-0.1-0.1-0.2-0.1-0.4-0.2c-0.1-0.5,0.1-0.9,0.3-1.3c0.8-1.6,1.2-3.3,1.8-5c0.7-1.5,1.4-2.9,2-4.4
				c0.6-1,1.2-2,1.8-3c1.3-2.2,3-3.8,5.6-4.3c1.5-0.3,2.9-0.2,4.4,0.2c0.6,0.3,1.1,0.5,1.7,0.8c0.1,0.1,0.1,0.1,0.2,0.2
				c3.2,2.2,4.4,5.6,3.3,9.3c-0.4,1.4-0.9,2.7-1.3,4.1c-0.7,1.5-1.4,2.9-2,4.4c-0.9,1.5-2,2.9-2.7,4.6c-0.2,0.4-0.4,0.8-0.8,1
				C31.9,41.5,31.8,41.5,31.6,41.4z"/>
			<path class="st2" d="M26.2,22.1c0.1-0.2,0.2-0.3,0.2-0.5c0.5-1.7,1.8-2.3,3.4-2.2c3,0.1,5.3,1.3,7,3.8c0.6,0.8,0.7,1.7,0.2,2.6
				c-0.3,0.6-0.5,1.2-0.8,1.8c-1.2,2.6-4.3,4-6.9,3.1c-2.9-1-4.5-3.9-3.8-6.8C25.7,23.2,26,22.6,26.2,22.1z M35.8,26.3
				c0.2-0.3,0.3-0.7,0.5-1c0.2-0.4,0.2-0.8,0-1.2c-1.2-2.5-4.8-4.2-7.6-3.6c-0.5,0.1-0.9,0.4-1.1,0.8c-0.4,0.9-0.8,1.7-1.1,2.6
				c-0.6,1.9,0.1,4,1.7,5.1c1.7,1.2,4,1.3,5.6,0C34.8,28.3,35.3,27.3,35.8,26.3z"/>
			<path class="st2" d="M26.9,34c-1.1-0.5-2.3-1-3.4-1.6c-0.3-0.2-0.7-0.3-0.5-0.8c0.2-0.5,0.6-0.3,0.9-0.1c2.3,1.1,4.6,2.1,6.9,3.2
				c0.3,0.2,0.7,0.3,0.5,0.8c-0.2,0.4-0.6,0.2-0.9,0.1C29.2,35,28.1,34.5,26.9,34z"/>
			<path class="st2" d="M25.9,36.3C25,35.9,24,35.4,23.1,35c-0.3-0.2-0.7-0.3-0.5-0.8c0.2-0.4,0.6-0.3,0.9-0.1
				c1.9,0.9,3.7,1.7,5.6,2.6c0.3,0.2,0.7,0.4,0.5,0.8c-0.2,0.4-0.6,0.2-0.9,0.1C27.7,37.1,26.8,36.7,25.9,36.3z"/>
		</g>
	</g>
</g>
</svg>
